<?xml version="1.0" standalone="no"?>
<!DOCTYPE svg PUBLIC "-//W3C//DTD SVG 20010904//EN"
 "http://www.w3.org/TR/2001/REC-SVG-20010904/DTD/svg10.dtd">
<svg version="1.0" xmlns="http://www.w3.org/2000/svg"
 width="441.000000pt" height="340.000000pt" viewBox="0 0 441.000000 340.000000"
 preserveAspectRatio="xMidYMid meet">
<metadata>
Created by potrace 1.16, written by Peter Selinger 2001-2019
</metadata>
<g transform="translate(0.000000,340.000000) scale(0.100000,-0.100000)"
fill="#000000" stroke="none">
<path d="M110 1755 l0 -1125 1125 0 1125 0 0 225 0 225 -50 0 -50 0 0 -175 0
-175 -1025 0 -1025 0 0 1025 0 1025 1025 0 1025 0 0 -175 0 -175 50 0 50 0 0
225 0 225 -1125 0 -1125 0 0 -1125z"/>
<path d="M1250 2609 c-25 -5 -82 -27 -126 -49 -211 -104 -344 -361 -344 -665
0 -159 35 -259 122 -351 80 -85 197 -120 309 -94 74 17 104 34 165 92 l53 50
-5 -59 c-9 -104 -44 -274 -70 -338 -29 -71 -81 -138 -127 -162 -17 -8 -54 -16
-83 -17 -43 -1 -57 4 -78 23 -28 26 -46 76 -46 129 0 41 32 132 60 172 l21 30
-24 9 c-141 54 -261 -31 -275 -194 -6 -80 22 -148 88 -209 64 -60 131 -80 254
-74 113 5 181 34 261 109 134 127 210 334 236 643 14 176 10 230 -23 262 -26
27 -99 43 -160 36 l-35 -4 -5 -96 c-5 -110 -25 -161 -86 -225 -86 -89 -209
-61 -272 63 -86 169 -19 561 125 728 109 126 284 113 309 -24 6 -28 2 -47 -16
-82 -32 -63 -81 -87 -172 -86 l-68 2 43 -44 c97 -99 245 -98 341 2 47 48 62
91 62 174 0 121 -69 212 -183 244 -61 17 -176 20 -251 5z"/>
<path d="M2713 2200 c-257 -46 -433 -261 -433 -529 0 -275 217 -454 530 -438
101 5 182 26 293 77 l67 30 0 140 0 140 50 0 c49 0 50 1 50 30 l0 30 -195 0
-195 0 0 -30 0 -30 85 0 86 0 -3 -122 -3 -122 -33 -23 c-18 -12 -67 -29 -107
-38 -183 -41 -356 40 -439 205 -71 142 -75 288 -11 416 62 126 157 185 311
192 107 5 178 -8 262 -48 55 -26 62 -32 62 -58 0 -16 3 -50 6 -76 6 -43 9 -46
37 -46 l30 0 -6 83 c-4 45 -7 115 -7 155 l0 72 -30 0 c-27 0 -30 -3 -30 -30 0
-16 -3 -30 -7 -30 -5 0 -43 11 -85 25 -87 28 -208 38 -285 25z"/>
<path d="M3340 2160 c0 -29 1 -29 63 -32 l62 -3 3 -394 c2 -309 -1 -396 -10
-403 -7 -4 -30 -8 -50 -8 -35 0 -38 -2 -38 -30 l0 -30 180 0 180 0 0 30 c0 29
-1 30 -51 30 -91 0 -89 -4 -89 194 0 174 0 174 25 190 l24 16 208 -230 208
-229 113 -1 112 0 0 30 c0 29 -2 30 -42 30 -24 0 -55 8 -70 18 -24 16 -430
436 -436 451 -3 8 345 288 398 320 19 11 52 21 73 21 34 0 37 2 37 30 l0 30
-170 0 -170 0 0 -30 0 -30 61 0 c44 0 60 -3 57 -12 -3 -7 -99 -90 -214 -185
l-209 -172 -3 177 c-3 194 -3 192 61 192 34 0 37 2 37 30 l0 30 -175 0 -175 0
0 -30z"/>
</g>
</svg>
