<svg aria-hidden="true" style="position: absolute; width: 0; height: 0; overflow: hidden;" version="1.1" xmlns="http://www.w3.org/2000/svg" xmlns:xlink="http://www.w3.org/1999/xlink">
<defs>
<symbol id="icon-gk" viewBox="0 0 42 32">
<path d="M1.035 15.482v10.588h21.176v-4.235h-0.941v3.294h-19.294v-19.294h19.294v3.294h0.941v-4.235h-21.176v10.588z"></path>
<path d="M11.765 7.445c-0.235 0.047-0.772 0.254-1.186 0.461-1.986 0.979-3.238 3.398-3.238 6.259 0 1.496 0.329 2.438 1.148 3.304 0.753 0.8 1.854 1.129 2.908 0.885 0.696-0.16 0.979-0.32 1.553-0.866l0.499-0.471-0.047 0.555c-0.085 0.979-0.414 2.579-0.659 3.181-0.273 0.668-0.762 1.299-1.195 1.525-0.16 0.075-0.508 0.151-0.781 0.16-0.405 0.009-0.536-0.038-0.734-0.216-0.264-0.245-0.433-0.715-0.433-1.214 0-0.386 0.301-1.242 0.565-1.619l0.198-0.282-0.226-0.085c-1.327-0.508-2.456 0.292-2.588 1.826-0.056 0.753 0.207 1.393 0.828 1.967 0.602 0.565 1.233 0.753 2.391 0.696 1.064-0.047 1.704-0.32 2.456-1.026 1.261-1.195 1.976-3.144 2.221-6.052 0.132-1.656 0.094-2.165-0.216-2.466-0.245-0.254-0.932-0.405-1.506-0.339l-0.329 0.038-0.047 0.904c-0.047 1.035-0.235 1.515-0.809 2.118-0.809 0.838-1.967 0.574-2.56-0.593-0.809-1.591-0.179-5.28 1.176-6.852 1.026-1.186 2.673-1.064 2.908 0.226 0.056 0.264 0.019 0.442-0.151 0.772-0.301 0.593-0.762 0.819-1.619 0.809l-0.64-0.019 0.405 0.414c0.913 0.932 2.306 0.922 3.209-0.019 0.442-0.452 0.584-0.856 0.584-1.638 0-1.139-0.649-1.995-1.722-2.296-0.574-0.16-1.656-0.188-2.362-0.047z"></path>
<path d="M25.534 11.294c-2.419 0.433-4.075 2.456-4.075 4.979 0 2.588 2.042 4.273 4.988 4.122 0.951-0.047 1.713-0.245 2.758-0.725l0.631-0.282v-2.635h0.471c0.461 0 0.471-0.009 0.471-0.282v-0.282h-3.671v0.565h1.609l-0.056 2.296-0.311 0.216c-0.169 0.113-0.631 0.273-1.007 0.358-1.722 0.386-3.351-0.376-4.132-1.929-0.668-1.336-0.706-2.711-0.104-3.915 0.584-1.186 1.478-1.741 2.927-1.807 1.007-0.047 1.675 0.075 2.466 0.452 0.518 0.245 0.584 0.301 0.584 0.546 0 0.151 0.028 0.471 0.056 0.715 0.056 0.405 0.085 0.433 0.348 0.433h0.282l-0.056-0.781c-0.038-0.424-0.066-1.082-0.066-1.459v-0.678h-0.282c-0.254 0-0.282 0.028-0.282 0.282 0 0.151-0.028 0.282-0.066 0.282-0.047 0-0.405-0.104-0.8-0.235-0.819-0.264-1.958-0.358-2.682-0.235z"></path>
<path d="M31.435 11.671c0 0.273 0.009 0.273 0.593 0.301l0.584 0.028 0.028 3.708c0.019 2.908-0.009 3.727-0.094 3.793-0.066 0.038-0.282 0.075-0.471 0.075-0.329 0-0.358 0.019-0.358 0.282v0.282h3.388v-0.282c0-0.273-0.009-0.282-0.48-0.282-0.856 0-0.838 0.038-0.838-1.826 0-1.638 0-1.638 0.235-1.788l0.226-0.151 1.958 2.165 1.958 2.155 1.064 0.009h1.054v-0.282c0-0.273-0.019-0.282-0.395-0.282-0.226 0-0.518-0.075-0.659-0.169-0.226-0.151-4.047-4.104-4.104-4.245-0.028-0.075 3.247-2.711 3.746-3.012 0.179-0.104 0.489-0.198 0.687-0.198 0.32 0 0.348-0.019 0.348-0.282v-0.282h-3.2v0.565h0.574c0.414 0 0.565 0.028 0.536 0.113-0.028 0.066-0.932 0.847-2.014 1.741l-1.967 1.619-0.028-1.666c-0.028-1.826-0.028-1.807 0.574-1.807 0.32 0 0.348-0.019 0.348-0.282v-0.282h-3.294v0.282z"></path>
</symbol>
</defs>
</svg>
